<?xml version="1.0" encoding="utf-8"?>
<!-- Generator: Adobe Illustrator 24.1.1, SVG Export Plug-In . SVG Version: 6.00 Build 0)  -->
<svg version="1.1" xmlns="http://www.w3.org/2000/svg" xmlns:xlink="http://www.w3.org/1999/xlink" x="0px" y="0px"
	 viewBox="0 0 612 792" style="enable-background:new 0 0 612 792;" xml:space="preserve">
<style type="text/css">
	.st0{fill:#FFFFFF;stroke:#000000;stroke-miterlimit:10;}
	.st1{fill:#393E46;stroke:#000000;stroke-miterlimit:10;}
</style>
<g id="Logo">
	<circle class="st0" cx="308.05" cy="394.6" r="242.86"/>
</g>
<g id="Layer_3">
	<path class="st1" d="M314.05,303.23l-16.64-101.49c0,0-58.34,16.19-104.01,58.27C82.58,362.12,2.69,501.65,321.56,561.32
		c0-70.56,0-83.52,0-83.52S73.88,421.64,314.05,303.23z"/>
</g>
<g id="Layer_4">
	<path class="st1" d="M341.72,332.36v228.96H395c0,0-39.57-94.97-21.73-114.48c21.73-9.36,127.07,2.8,77.89-101.52
		C404.31,245.96,341.72,332.36,341.72,332.36z"/>
	<path class="st0" d="M379.16,361.16V396c0,0,69.12-3.16,40.32-34.84C390.68,329.48,379.16,361.16,379.16,361.16z"/>
</g>
</svg>
